<svg width="880" height="1752" viewBox="0 0 880 1752" fill="none" xmlns="http://www.w3.org/2000/svg">
<path opacity="0.2" d="M752.375 987.166C666.97 1226.97 554.655 1431.59 442.125 1568.56C385.858 1637.04 329.555 1688.59 276.555 1719.18C223.553 1749.76 173.917 1759.35 130.925 1744.04C87.933 1728.73 55.5307 1689.92 33.7942 1632.72C12.0586 1575.52 1.01546 1499.98 0.705633 1411.35C0.08602 1234.08 42.3973 1004.54 127.803 764.729C213.208 524.922 325.523 320.304 438.053 183.337C494.32 114.852 550.623 63.3031 603.623 32.7186C656.625 2.13274 706.261 -7.45397 749.253 7.85731C792.245 23.1686 824.647 61.9728 846.384 119.176C868.119 176.377 879.163 251.911 879.472 340.546C880.092 517.81 837.781 747.359 752.375 987.166Z" stroke="white"/>
</svg>
