<svg width="90" height="90" viewBox="0 0 90 90" fill="none" xmlns="http://www.w3.org/2000/svg">
<path fill-rule="evenodd" clip-rule="evenodd" d="M40.465 34.066C41.638 34.012 42.012 34 45 34C47.988 34 48.362 34.013 49.534 34.066C50.706 34.119 51.506 34.306 52.206 34.577C52.939 34.854 53.604 35.287 54.154 35.847C54.714 36.396 55.146 37.06 55.422 37.794C55.694 38.494 55.88 39.294 55.934 40.464C55.988 41.639 56 42.013 56 45C56 47.988 55.987 48.362 55.934 49.535C55.881 50.705 55.694 51.505 55.422 52.205C55.146 52.9391 54.7133 53.6042 54.154 54.154C53.604 54.714 52.939 55.146 52.206 55.422C51.506 55.694 50.706 55.88 49.536 55.934C48.362 55.988 47.988 56 45 56C42.012 56 41.638 55.987 40.465 55.934C39.295 55.881 38.495 55.694 37.795 55.422C37.0609 55.146 36.3958 54.7133 35.846 54.154C35.2864 53.6047 34.8533 52.9399 34.577 52.206C34.306 51.506 34.12 50.706 34.066 49.536C34.012 48.361 34 47.987 34 45C34 42.012 34.013 41.638 34.066 40.466C34.119 39.294 34.306 38.494 34.577 37.794C34.8537 37.0601 35.2871 36.3953 35.847 35.846C36.396 35.2865 37.0605 34.8534 37.794 34.577C38.494 34.306 39.295 34.12 40.465 34.066ZM49.445 36.046C48.285 35.993 47.937 35.982 45 35.982C42.063 35.982 41.715 35.993 40.555 36.046C39.482 36.095 38.9 36.274 38.512 36.425C37.999 36.625 37.632 36.862 37.247 37.247C36.8821 37.6021 36.6012 38.0343 36.425 38.512C36.274 38.9 36.095 39.482 36.046 40.555C35.993 41.715 35.982 42.063 35.982 45C35.982 47.937 35.993 48.285 36.046 49.445C36.095 50.518 36.274 51.1 36.425 51.488C36.601 51.965 36.882 52.398 37.247 52.753C37.602 53.118 38.035 53.399 38.512 53.575C38.9 53.726 39.482 53.905 40.555 53.954C41.715 54.007 42.062 54.018 45 54.018C47.938 54.018 48.285 54.007 49.445 53.954C50.518 53.905 51.1 53.726 51.488 53.575C52.001 53.375 52.368 53.138 52.753 52.753C53.118 52.398 53.399 51.965 53.575 51.488C53.726 51.1 53.905 50.518 53.954 49.445C54.007 48.285 54.018 47.937 54.018 45C54.018 42.063 54.007 41.715 53.954 40.555C53.905 39.482 53.726 38.9 53.575 38.512C53.375 37.999 53.138 37.632 52.753 37.247C52.3979 36.8821 51.9657 36.6012 51.488 36.425C51.1 36.274 50.518 36.095 49.445 36.046ZM43.595 48.391C44.3797 48.7176 45.2534 48.7617 46.0669 48.5157C46.8805 48.2697 47.5834 47.7489 48.0556 47.0422C48.5278 46.3356 48.7401 45.4869 48.656 44.6411C48.572 43.7953 48.197 43.005 47.595 42.405C47.2112 42.0215 46.7472 41.7278 46.2363 41.5452C45.7255 41.3625 45.1804 41.2954 44.6405 41.3486C44.1006 41.4019 43.5792 41.5742 43.1138 41.8531C42.6485 42.1321 42.2507 42.5107 41.9493 42.9619C41.6479 43.413 41.4502 43.9253 41.3705 44.462C41.2908 44.9986 41.3312 45.5463 41.4885 46.0655C41.6459 46.5847 41.9165 47.0626 42.2807 47.4647C42.645 47.8668 43.0938 48.1832 43.595 48.391ZM41.002 41.002C41.527 40.477 42.1503 40.0605 42.8363 39.7764C43.5223 39.4922 44.2575 39.346 45 39.346C45.7425 39.346 46.4777 39.4922 47.1637 39.7764C47.8497 40.0605 48.473 40.477 48.998 41.002C49.523 41.527 49.9395 42.1503 50.2236 42.8363C50.5078 43.5223 50.654 44.2575 50.654 45C50.654 45.7425 50.5078 46.4777 50.2236 47.1637C49.9395 47.8497 49.523 48.473 48.998 48.998C47.9377 50.0583 46.4995 50.654 45 50.654C43.5005 50.654 42.0623 50.0583 41.002 48.998C39.9417 47.9377 39.346 46.4995 39.346 45C39.346 43.5005 39.9417 42.0623 41.002 41.002ZM51.908 40.188C52.0381 40.0653 52.1423 39.9177 52.2143 39.754C52.2863 39.5903 52.3248 39.4138 52.3274 39.2349C52.33 39.0561 52.2967 38.8786 52.2295 38.7128C52.1622 38.5471 52.0624 38.3965 51.936 38.27C51.8095 38.1436 51.6589 38.0438 51.4932 37.9765C51.3275 37.9093 51.1499 37.876 50.9711 37.8786C50.7922 37.8812 50.6157 37.9197 50.452 37.9917C50.2883 38.0637 50.1407 38.1679 50.018 38.298C49.7793 38.551 49.6486 38.8871 49.6537 39.2349C49.6588 39.5827 49.7992 39.9149 50.0452 40.1608C50.2911 40.4068 50.6233 40.5472 50.9711 40.5523C51.3189 40.5574 51.655 40.4267 51.908 40.188Z" fill="#ADCEC8"/>
<rect x="0.5" y="0.5" width="89" height="89" rx="44.5" stroke="#ADCEC8"/>
</svg>
