<svg width="101" height="100" viewBox="0 0 101 100" fill="none" xmlns="http://www.w3.org/2000/svg">
<path fill-rule="evenodd" clip-rule="evenodd" d="M1.27979 48.1096L48.6096 0.779793C49.6494 -0.259931 51.3506 -0.259931 52.3904 0.779793L99.7202 48.1096C100.76 49.1494 100.76 50.8506 99.7202 51.8904L52.3904 99.2202C51.3506 100.26 49.6494 100.26 48.6096 99.2202L1.27979 51.8904C0.240069 50.8506 0.240069 49.1494 1.27979 48.1096ZM3.40458 46.6191L50.4126 2.78345C51.3997 1.86295 52.9605 1.91746 53.8809 2.90455L97.7166 49.9126C98.6371 50.8997 98.5826 52.4604 97.5955 53.3809L50.5875 97.2166C49.6004 98.137 48.0396 98.0826 47.1191 97.0954L3.28347 50.0874C2.36301 49.1004 2.41749 47.5396 3.40458 46.6191Z" fill="white"/>
<path d="M34.4572 48.536C34.5027 48.536 34.5254 48.5814 34.5254 48.6723C34.5254 48.7632 34.5027 48.8087 34.4572 48.8087C33.9876 48.8087 33.6164 48.8011 33.3437 48.7859L31.8211 48.7632L30.4122 48.7859C30.1849 48.8011 29.8668 48.8087 29.4577 48.8087C29.4274 48.8087 29.4123 48.7632 29.4123 48.6723C29.4123 48.5814 29.4274 48.536 29.4577 48.536C29.988 48.536 30.3743 48.4981 30.6167 48.4223C30.8742 48.3314 31.0409 48.1799 31.1166 47.9678C31.2075 47.7557 31.2378 47.4224 31.2075 46.9679L30.8212 36.4008L25.5036 48.6496C25.4733 48.7102 25.4127 48.7405 25.3218 48.7405C25.246 48.7405 25.1778 48.7102 25.1172 48.6496L19.5724 36.4917L19.5496 36.4463L19.3678 46.4453C19.3527 47.2331 19.4815 47.7785 19.7542 48.0815C20.0269 48.3845 20.5344 48.536 21.2767 48.536C21.307 48.536 21.3222 48.5814 21.3222 48.6723C21.3222 48.7632 21.307 48.8087 21.2767 48.8087C20.8525 48.8087 20.5268 48.8011 20.2996 48.7859L19.0724 48.7632L17.9589 48.7859C17.7619 48.8011 17.4665 48.8087 17.0726 48.8087C17.0423 48.8087 17.0272 48.7632 17.0272 48.6723C17.0272 48.5814 17.0423 48.536 17.0726 48.536C17.7089 48.536 18.1558 48.3845 18.4134 48.0815C18.6861 47.7633 18.83 47.2179 18.8452 46.4453L19.0724 35.6736C18.6028 35.1434 17.9892 34.8783 17.2317 34.8783C17.2014 34.8783 17.1862 34.8328 17.1862 34.7419C17.1862 34.651 17.2014 34.6056 17.2317 34.6056L18.0043 34.6283C18.1558 34.6434 18.3528 34.651 18.5952 34.651C18.8376 34.651 19.0421 34.6434 19.2088 34.6283C19.3754 34.6131 19.5042 34.6056 19.5951 34.6056C19.8072 34.6056 19.9738 34.6813 20.095 34.8328C20.2162 34.9692 20.398 35.2873 20.6404 35.7873L25.7535 46.8316L30.8439 35.1737C30.9197 35.007 31.0182 34.8707 31.1394 34.7646C31.2757 34.6586 31.4045 34.6056 31.5257 34.6056C31.5863 34.6056 31.6848 34.6131 31.8211 34.6283C31.9575 34.6434 32.1468 34.651 32.3892 34.651L33.4119 34.6283C33.5634 34.6131 33.7982 34.6056 34.1163 34.6056C34.1466 34.6056 34.1618 34.651 34.1618 34.7419C34.1618 34.8328 34.1466 34.8783 34.1163 34.8783C33.3285 34.8783 32.768 34.9843 32.4347 35.1964C32.1165 35.3934 31.965 35.7948 31.9802 36.4008L32.412 46.9679C32.4271 47.4376 32.4801 47.7785 32.571 47.9906C32.6771 48.2027 32.8665 48.3466 33.1392 48.4223C33.427 48.4981 33.8664 48.536 34.4572 48.536ZM49.3893 48.536C49.4499 48.536 49.4802 48.5814 49.4802 48.6723C49.4802 48.7632 49.4499 48.8087 49.3893 48.8087C49.1166 48.8087 48.6772 48.7935 48.0712 48.7632C47.4955 48.7329 47.0713 48.7178 46.7986 48.7178C46.4805 48.7178 46.0639 48.7329 45.5488 48.7632C45.064 48.7935 44.7004 48.8087 44.458 48.8087C44.3974 48.8087 44.3671 48.7632 44.3671 48.6723C44.3671 48.5814 44.3974 48.536 44.458 48.536C45.0791 48.536 45.526 48.4829 45.7987 48.3769C46.0714 48.2557 46.2078 48.0587 46.2078 47.786C46.2078 47.5739 46.1245 47.2785 45.9578 46.8998L43.8217 42.2866H38.4131L36.8678 46.0135C36.6557 46.5286 36.5497 46.9528 36.5497 47.2861C36.5497 47.7254 36.7315 48.0436 37.0951 48.2405C37.4587 48.4375 38.0268 48.536 38.7994 48.536C38.8752 48.536 38.9131 48.5814 38.9131 48.6723C38.9131 48.7632 38.8752 48.8087 38.7994 48.8087C38.5267 48.8087 38.1328 48.7935 37.6177 48.7632C37.0421 48.7329 36.5421 48.7178 36.1179 48.7178C35.7392 48.7178 35.2922 48.7329 34.7771 48.7632C34.3226 48.7935 33.9515 48.8087 33.6636 48.8087C33.5879 48.8087 33.55 48.7632 33.55 48.6723C33.55 48.5814 33.5879 48.536 33.6636 48.536C34.0878 48.536 34.4438 48.4602 34.7317 48.3087C35.0347 48.1572 35.315 47.8845 35.5725 47.4906C35.8452 47.0967 36.1331 46.5362 36.4361 45.809L41.1856 34.3783C41.2159 34.3329 41.2613 34.3101 41.3219 34.3101C41.3977 34.3101 41.4431 34.3329 41.4583 34.3783L46.7305 45.6953C47.0789 46.468 47.3895 47.0588 47.6622 47.4679C47.9349 47.8618 48.2 48.1421 48.4576 48.3087C48.7303 48.4602 49.0408 48.536 49.3893 48.536ZM38.5949 41.8775H43.6171L40.9583 36.1736L38.5949 41.8775ZM58.8029 45.4908C58.8029 45.4454 58.8484 45.4302 58.9393 45.4454C59.0302 45.4454 59.0756 45.4681 59.0756 45.5135C58.9393 46.468 58.8711 47.4527 58.8711 48.4678C58.8711 48.589 58.8408 48.6799 58.7802 48.7405C58.7347 48.7859 58.6438 48.8087 58.5075 48.8087H49.1221C49.0918 48.8087 49.0766 48.7632 49.0766 48.6723C49.0766 48.5814 49.0918 48.536 49.1221 48.536C49.7129 48.536 50.1447 48.4981 50.4174 48.4223C50.7053 48.3466 50.8946 48.2027 50.9855 47.9906C51.0916 47.7633 51.1446 47.4224 51.1446 46.9679V36.4463C51.1446 35.9918 51.0916 35.6585 50.9855 35.4464C50.8946 35.2343 50.7053 35.0904 50.4174 35.0146C50.1447 34.9237 49.7129 34.8783 49.1221 34.8783C49.0918 34.8783 49.0766 34.8328 49.0766 34.7419C49.0766 34.651 49.0918 34.6056 49.1221 34.6056H58.1212C58.2575 34.6056 58.3257 34.6737 58.3257 34.8101L58.3711 37.5598C58.3711 37.6053 58.3257 37.628 58.2348 37.628C58.159 37.628 58.1212 37.6053 58.1212 37.5598C58.1212 36.7872 57.9166 36.1736 57.5076 35.7191C57.0985 35.2646 56.5607 35.0373 55.8941 35.0373H54.3261C53.7504 35.0373 53.3262 35.0752 53.0535 35.151C52.7808 35.2267 52.5914 35.3706 52.4854 35.5827C52.3945 35.7948 52.349 36.1281 52.349 36.5826V41.1958H55.3487C56.0456 41.1958 56.5304 41.0822 56.8031 40.8549C57.0758 40.6125 57.2122 40.2035 57.2122 39.6278C57.2122 39.5975 57.2576 39.5823 57.3485 39.5823C57.4394 39.5823 57.4849 39.5975 57.4849 39.6278L57.4621 41.423C57.4621 41.8624 57.4697 42.1881 57.4849 42.4002L57.5076 43.4683C57.5076 43.4986 57.4621 43.5137 57.3712 43.5137C57.2803 43.5137 57.2349 43.4986 57.2349 43.4683C57.2349 42.7865 57.091 42.3093 56.8031 42.0366C56.5153 41.7639 56.0077 41.6276 55.2805 41.6276H52.349V46.877C52.349 47.3164 52.3945 47.6421 52.4854 47.8542C52.5914 48.0512 52.7732 48.1875 53.0308 48.2633C53.3035 48.339 53.7352 48.3769 54.3261 48.3769H56.4168C57.0228 48.3769 57.5379 48.1118 57.9621 47.5815C58.4014 47.0513 58.6817 46.3544 58.8029 45.4908ZM62.0117 37.3553C62.0117 37.9613 62.1557 38.4839 62.4435 38.9233C62.7314 39.3626 63.0798 39.7338 63.4889 40.0368C63.9131 40.3247 64.4963 40.6883 65.2387 41.1276C66.0265 41.5973 66.6325 41.9912 67.0567 42.3093C67.496 42.6123 67.8672 43.0062 68.1702 43.491C68.4884 43.9758 68.6474 44.5591 68.6474 45.2408C68.6474 45.9529 68.4732 46.6043 68.1248 47.1952C67.7763 47.7709 67.2536 48.233 66.5567 48.5814C65.875 48.9147 65.0342 49.0814 64.0343 49.0814C63.504 49.0814 62.9965 49.0208 62.5117 48.8996C62.042 48.7935 61.5194 48.5966 60.9437 48.3087C60.8679 48.2633 60.8149 48.2102 60.7846 48.1496C60.7694 48.089 60.7543 47.9981 60.7391 47.8769L60.3983 44.9227V44.9C60.3983 44.8394 60.4361 44.8091 60.5119 44.8091C60.5876 44.7939 60.6331 44.8166 60.6482 44.8772C60.7997 45.9226 61.2012 46.8316 61.8527 47.6042C62.5041 48.3769 63.398 48.7632 64.5342 48.7632C65.3372 48.7632 66.0113 48.5435 66.5567 48.1042C67.1173 47.6648 67.3976 46.9755 67.3976 46.0362C67.3976 45.3545 67.2461 44.7712 66.9431 44.2864C66.6401 43.7864 66.2689 43.3774 65.8295 43.0592C65.4053 42.7259 64.8221 42.3396 64.0797 41.9003C63.3525 41.4761 62.7768 41.1049 62.3526 40.7867C61.9436 40.4686 61.5875 40.0747 61.2845 39.605C60.9967 39.1202 60.8528 38.5445 60.8528 37.8779C60.8528 37.1205 61.0421 36.4766 61.4209 35.9463C61.8148 35.4161 62.3223 35.0222 62.9435 34.7646C63.5646 34.4919 64.2312 34.3556 64.9433 34.3556C65.7765 34.3556 66.6401 34.5374 67.5339 34.901C67.7612 34.9919 67.8748 35.1207 67.8748 35.2873L68.0793 37.6962C68.0793 37.7568 68.0339 37.7871 67.943 37.7871C67.8672 37.7871 67.8218 37.7568 67.8066 37.6962C67.746 36.9084 67.4506 36.2039 66.9203 35.5827C66.3901 34.9616 65.6326 34.651 64.6478 34.651C63.7388 34.651 63.0722 34.9161 62.648 35.4464C62.2238 35.9766 62.0117 36.6129 62.0117 37.3553ZM72.6323 34.9919C71.6778 34.9919 70.9809 35.2191 70.5416 35.6736C70.1022 36.1281 69.8068 36.9387 69.6553 38.1052C69.6553 38.1355 69.6099 38.1506 69.519 38.1506C69.4281 38.1506 69.3826 38.1355 69.3826 38.1052C69.4432 37.6962 69.5114 37.0447 69.5871 36.1509C69.6629 35.2419 69.7008 34.5601 69.7008 34.1056C69.7008 34.0299 69.7462 33.992 69.8371 33.992C69.928 33.992 69.9735 34.0299 69.9735 34.1056C69.9735 34.4389 70.3749 34.6056 71.1779 34.6056C72.4808 34.651 74.0034 34.6737 75.7456 34.6737C76.6395 34.6737 77.5863 34.6586 78.5862 34.6283L80.1315 34.6056C80.6769 34.6056 81.0784 34.5677 81.3359 34.4919C81.5935 34.4162 81.7601 34.2647 81.8359 34.0374C81.851 33.9768 81.8965 33.9465 81.9722 33.9465C82.048 33.9465 82.0859 33.9768 82.0859 34.0374C82.0404 34.4616 81.995 35.1131 81.9495 35.9918C81.9041 36.8553 81.8813 37.5598 81.8813 38.1052C81.8813 38.1355 81.8359 38.1506 81.745 38.1506C81.6541 38.1506 81.6086 38.1355 81.6086 38.1052C81.6086 37.3023 81.5253 36.6811 81.3587 36.2418C81.192 35.8024 80.9117 35.4843 80.5178 35.2873C80.124 35.0904 79.571 34.9919 78.8589 34.9919C78.0711 34.9919 77.5182 35.0222 77.2 35.0828C76.8819 35.1282 76.6622 35.2494 76.541 35.4464C76.4349 35.6433 76.3819 35.9918 76.3819 36.4917V46.9679C76.3819 47.4376 76.4349 47.7785 76.541 47.9906C76.647 48.2027 76.8591 48.3466 77.1773 48.4223C77.4954 48.4981 77.9954 48.536 78.6771 48.536C78.7074 48.536 78.7226 48.5814 78.7226 48.6723C78.7226 48.7632 78.7074 48.8087 78.6771 48.8087C78.1772 48.8087 77.7833 48.8011 77.4954 48.7859L75.7456 48.7632L74.0867 48.7859C73.7837 48.8011 73.3671 48.8087 72.8368 48.8087C72.8065 48.8087 72.7914 48.7632 72.7914 48.6723C72.7914 48.5814 72.8065 48.536 72.8368 48.536C73.5186 48.536 74.0185 48.4981 74.3367 48.4223C74.6548 48.3466 74.8669 48.2027 74.973 47.9906C75.0942 47.7633 75.1548 47.4224 75.1548 46.9679V36.4463C75.1548 35.9463 75.0942 35.6055 74.973 35.4237C74.8518 35.2267 74.6321 35.1055 74.3139 35.0601C74.0109 35.0146 73.4504 34.9919 72.6323 34.9919Z" fill="white"/>
<path d="M34.5852 66.3182C34.6307 66.3182 34.6534 66.3636 34.6534 66.4545C34.6534 66.5454 34.6307 66.5909 34.5852 66.5909H31.9491C31.5704 66.5909 30.8356 65.9622 29.7448 64.7047C28.6692 63.4321 27.3814 61.6899 25.8816 59.478C25.3513 59.584 24.8741 59.637 24.4499 59.637C24.3893 59.637 24.0636 59.6143 23.4727 59.5689V64.7502C23.4727 65.2198 23.5182 65.5607 23.6091 65.7728C23.7151 65.9849 23.9045 66.1288 24.1772 66.2046C24.4499 66.2803 24.8892 66.3182 25.4952 66.3182C25.5407 66.3182 25.5634 66.3636 25.5634 66.4545C25.5634 66.5454 25.5407 66.5909 25.4952 66.5909C25.0407 66.5909 24.6771 66.5833 24.4044 66.5682L22.8591 66.5454L21.3593 66.5682C21.0866 66.5833 20.7078 66.5909 20.223 66.5909C20.1927 66.5909 20.1776 66.5454 20.1776 66.4545C20.1776 66.3636 20.1927 66.3182 20.223 66.3182C20.829 66.3182 21.2684 66.2803 21.5411 66.2046C21.8289 66.1288 22.0259 65.9849 22.1319 65.7728C22.238 65.5455 22.291 65.2047 22.291 64.7502V54.2285C22.291 53.774 22.238 53.4407 22.1319 53.2286C22.041 53.0165 21.8517 52.8726 21.5638 52.7968C21.2911 52.7059 20.8593 52.6605 20.2685 52.6605C20.223 52.6605 20.2003 52.615 20.2003 52.5241C20.2003 52.4332 20.223 52.3878 20.2685 52.3878L21.3593 52.4105C21.9653 52.4408 22.4652 52.456 22.8591 52.456C23.1924 52.456 23.503 52.4484 23.7909 52.4332C24.0939 52.4181 24.3514 52.4029 24.5635 52.3878C25.1089 52.3423 25.5937 52.3196 26.0179 52.3196C27.1542 52.3196 28.0329 52.5999 28.654 53.1604C29.2903 53.7058 29.6085 54.433 29.6085 55.342C29.6085 56.145 29.3661 56.8797 28.8813 57.5463C28.3965 58.1978 27.7526 58.7129 26.9496 59.0916C28.2525 60.9399 29.3433 62.3792 30.222 63.4094C31.1007 64.4396 31.8809 65.1819 32.5627 65.6364C33.2444 66.0909 33.9186 66.3182 34.5852 66.3182ZM23.4727 59.0462C23.8969 59.0916 24.3514 59.1144 24.8362 59.1144C26.0937 59.1144 26.9875 58.8568 27.5178 58.3417C28.0632 57.8115 28.3359 57.0161 28.3359 55.9556C28.3359 54.7891 28.048 53.9407 27.4723 53.4104C26.9118 52.8802 26.0937 52.615 25.018 52.615C24.4423 52.615 24.0408 52.7211 23.8136 52.9332C23.5863 53.1453 23.4727 53.5922 23.4727 54.274V59.0462ZM40.2691 66.8636C38.8602 66.8636 37.6027 66.5379 36.4968 65.8864C35.406 65.2198 34.5576 64.326 33.9516 63.2049C33.3607 62.0686 33.0653 60.8339 33.0653 59.5007C33.0653 57.9402 33.4592 56.607 34.247 55.5011C35.0348 54.38 36.0423 53.5392 37.2694 52.9786C38.5117 52.4181 39.7767 52.1378 41.0645 52.1378C42.5037 52.1378 43.7688 52.4787 44.8596 53.1604C45.9504 53.827 46.7836 54.7133 47.3593 55.8193C47.9502 56.9252 48.2456 58.0993 48.2456 59.3416C48.2456 60.7203 47.882 61.9853 47.1548 63.1367C46.4276 64.2881 45.4504 65.1971 44.2233 65.8637C43.0113 66.5303 41.6932 66.8636 40.2691 66.8636ZM41.0872 66.4091C42.1629 66.4091 43.1325 66.1591 43.996 65.6592C44.8596 65.1592 45.5413 64.4244 46.0413 63.4548C46.5412 62.4852 46.7912 61.3263 46.7912 59.9779C46.7912 58.5538 46.5109 57.2888 45.9504 56.1829C45.405 55.0618 44.6247 54.1906 43.6097 53.5695C42.6098 52.9483 41.4432 52.6378 40.11 52.6378C38.3526 52.6378 36.9816 53.1832 35.9968 54.274C35.0121 55.3648 34.5197 56.8494 34.5197 58.728C34.5197 60.137 34.7924 61.4323 35.3378 62.614C35.8984 63.7806 36.6786 64.7047 37.6785 65.3865C38.6784 66.0682 39.8146 66.4091 41.0872 66.4091ZM56.3044 66.8636C54.8955 66.8636 53.638 66.5379 52.5321 65.8864C51.4413 65.2198 50.5929 64.326 49.9869 63.2049C49.396 62.0686 49.1006 60.8339 49.1006 59.5007C49.1006 57.9402 49.4945 56.607 50.2823 55.5011C51.0701 54.38 52.0776 53.5392 53.3047 52.9786C54.547 52.4181 55.812 52.1378 57.0998 52.1378C58.539 52.1378 59.8041 52.4787 60.8949 53.1604C61.9857 53.827 62.8189 54.7133 63.3946 55.8193C63.9854 56.9252 64.2809 58.0993 64.2809 59.3416C64.2809 60.7203 63.9173 61.9853 63.1901 63.1367C62.4629 64.2881 61.4857 65.1971 60.2586 65.8637C59.0466 66.5303 57.7285 66.8636 56.3044 66.8636ZM57.1225 66.4091C58.1982 66.4091 59.1678 66.1591 60.0313 65.6592C60.8949 65.1592 61.5766 64.4244 62.0766 63.4548C62.5765 62.4852 62.8265 61.3263 62.8265 59.9779C62.8265 58.5538 62.5462 57.2888 61.9857 56.1829C61.4403 55.0618 60.66 54.1906 59.645 53.5695C58.6451 52.9483 57.4785 52.6378 56.1453 52.6378C54.3879 52.6378 53.0169 53.1832 52.0321 54.274C51.0474 55.3648 50.555 56.8494 50.555 58.728C50.555 60.137 50.8277 61.4323 51.3731 62.614C51.9336 63.7806 52.7139 64.7047 53.7138 65.3865C54.7137 66.0682 55.8499 66.4091 57.1225 66.4091ZM82.3614 66.3182C82.4069 66.3182 82.4296 66.3636 82.4296 66.4545C82.4296 66.5454 82.4069 66.5909 82.3614 66.5909C81.8918 66.5909 81.5206 66.5833 81.2479 66.5682L79.7253 66.5454L78.3164 66.5682C78.0891 66.5833 77.771 66.5909 77.3619 66.5909C77.3316 66.5909 77.3165 66.5454 77.3165 66.4545C77.3165 66.3636 77.3316 66.3182 77.3619 66.3182C77.8922 66.3182 78.2785 66.2803 78.5209 66.2046C78.7784 66.1137 78.9451 65.9622 79.0208 65.7501C79.1117 65.538 79.142 65.2047 79.1117 64.7502L78.7254 54.1831L73.4078 66.4318C73.3775 66.4924 73.3169 66.5227 73.226 66.5227C73.1502 66.5227 73.0821 66.4924 73.0215 66.4318L67.4766 54.274L67.4538 54.2285L67.272 64.2275C67.2569 65.0153 67.3857 65.5607 67.6584 65.8637C67.9311 66.1667 68.4386 66.3182 69.1809 66.3182C69.2112 66.3182 69.2264 66.3636 69.2264 66.4545C69.2264 66.5454 69.2112 66.5909 69.1809 66.5909C68.7567 66.5909 68.431 66.5833 68.2038 66.5682L66.9766 66.5454L65.8631 66.5682C65.6661 66.5833 65.3707 66.5909 64.9768 66.5909C64.9465 66.5909 64.9314 66.5454 64.9314 66.4545C64.9314 66.3636 64.9465 66.3182 64.9768 66.3182C65.6131 66.3182 66.06 66.1667 66.3176 65.8637C66.5903 65.5455 66.7342 65.0001 66.7494 64.2275L66.9766 53.4559C66.507 52.9256 65.8934 52.6605 65.1359 52.6605C65.1056 52.6605 65.0905 52.615 65.0905 52.5241C65.0905 52.4332 65.1056 52.3878 65.1359 52.3878L65.9085 52.4105C66.06 52.4257 66.257 52.4332 66.4994 52.4332C66.7418 52.4332 66.9463 52.4257 67.113 52.4105C67.2796 52.3954 67.4084 52.3878 67.4993 52.3878C67.7114 52.3878 67.878 52.4635 67.9992 52.615C68.1204 52.7514 68.3022 53.0695 68.5446 53.5695L73.6578 64.6138L78.7481 52.9559C78.8239 52.7893 78.9224 52.6529 79.0436 52.5469C79.1799 52.4408 79.3087 52.3878 79.4299 52.3878C79.4905 52.3878 79.589 52.3954 79.7253 52.4105C79.8617 52.4257 80.051 52.4332 80.2934 52.4332L81.3161 52.4105C81.4676 52.3954 81.7024 52.3878 82.0205 52.3878C82.0508 52.3878 82.066 52.4332 82.066 52.5241C82.066 52.615 82.0508 52.6605 82.0205 52.6605C81.2327 52.6605 80.6722 52.7665 80.3389 52.9786C80.0207 53.1756 79.8692 53.5771 79.8844 54.1831L80.3162 64.7502C80.3313 65.2198 80.3843 65.5607 80.4752 65.7728C80.5813 65.9849 80.7707 66.1288 81.0434 66.2046C81.3312 66.2803 81.7706 66.3182 82.3614 66.3182Z" fill="white"/>
</svg>
