<svg width="90" height="90" viewBox="0 0 90 90" fill="none" xmlns="http://www.w3.org/2000/svg">
<g clip-path="url(#clip0_1205_569)">
<path d="M34.5333 55.5625L36.0127 51.1247L36.1574 50.6906L35.9236 50.2974C34.9653 48.6856 34.4138 46.8058 34.4138 44.7931C34.4138 38.8323 39.2461 34 45.2069 34C51.1677 34 56 38.8323 56 44.7931C56 50.7539 51.1677 55.5862 45.2069 55.5862C43.3924 55.5862 41.6857 55.1369 40.186 54.3471L39.8418 54.1658L39.4655 54.2648L34.5333 55.5625Z" stroke="#ADCEC8" stroke-width="2"/>
<path d="M51.8855 48.1054C51.4103 47.2074 49.6578 46.1804 49.6578 46.1804C49.2613 45.9543 48.7828 45.9291 48.5568 46.332C48.5568 46.332 47.9873 47.0149 47.8425 47.1131C47.1809 47.5612 46.5681 47.5439 45.9496 46.9253L44.512 45.4878L43.0744 44.0502C42.4558 43.4316 42.4385 42.8188 42.8866 42.1573C42.9848 42.0125 43.6677 41.443 43.6677 41.443C44.0707 41.2166 44.0454 40.7385 43.8194 40.342C43.8194 40.342 42.7923 38.5896 41.8943 38.1144C41.5122 37.9121 41.0431 37.9829 40.7376 38.2884L40.1028 38.9232C38.0889 40.9371 39.0805 43.2106 41.0944 45.2245L42.935 47.0651L44.7756 48.9056C46.7895 50.9195 49.0631 51.9111 51.077 49.8972L51.7118 49.2624C52.0173 48.9562 52.0877 48.4871 51.8855 48.1054Z" fill="#ADCEC8"/>
</g>
<rect x="0.5" y="0.5" width="89" height="89" rx="44.5" stroke="#ADCEC8"/>
<defs>
<clipPath id="clip0_1205_569">
<rect width="24" height="24" fill="white" transform="translate(33 33)"/>
</clipPath>
</defs>
</svg>
